<mxfile host="app.diagrams.net" modified="2024-01-08T04:07:47.430Z" agent="Mozilla/5.0 (Windows NT 10.0; Win64; x64) AppleWebKit/537.36 (KHTML, like Gecko) Chrome/120.0.0.0 Safari/537.36" etag="9kY5ZscZIV692Uh0YAkv" version="22.1.17" type="device">
  <diagram name="Page-1" id="pXJpRA86cUalUnszfnA_">
    <mxGraphModel dx="1690" dy="446" grid="1" gridSize="10" guides="1" tooltips="1" connect="1" arrows="1" fold="1" page="1" pageScale="1" pageWidth="850" pageHeight="1100" math="0" shadow="0">
      <root>
        <mxCell id="0" />
        <mxCell id="1" parent="0" />
        <mxCell id="NABCYClFSlzbWUvjq0Ez-3" value="" style="edgeStyle=orthogonalEdgeStyle;rounded=0;orthogonalLoop=1;jettySize=auto;html=1;" parent="1" source="NABCYClFSlzbWUvjq0Ez-1" target="NABCYClFSlzbWUvjq0Ez-2" edge="1">
          <mxGeometry relative="1" as="geometry" />
        </mxCell>
        <mxCell id="NABCYClFSlzbWUvjq0Ez-1" value="START" style="strokeWidth=2;html=1;shape=mxgraph.flowchart.terminator;whiteSpace=wrap;" parent="1" vertex="1">
          <mxGeometry x="90" y="40" width="100" height="60" as="geometry" />
        </mxCell>
        <mxCell id="NABCYClFSlzbWUvjq0Ez-6" value="" style="edgeStyle=orthogonalEdgeStyle;rounded=0;orthogonalLoop=1;jettySize=auto;html=1;" parent="1" source="NABCYClFSlzbWUvjq0Ez-2" target="NABCYClFSlzbWUvjq0Ez-5" edge="1">
          <mxGeometry relative="1" as="geometry" />
        </mxCell>
        <mxCell id="NABCYClFSlzbWUvjq0Ez-2" value="input username &amp;amp; password" style="shape=parallelogram;html=1;strokeWidth=2;perimeter=parallelogramPerimeter;whiteSpace=wrap;rounded=1;arcSize=12;size=0.23;" parent="1" vertex="1">
          <mxGeometry x="67.5" y="150" width="145" height="80" as="geometry" />
        </mxCell>
        <mxCell id="NABCYClFSlzbWUvjq0Ez-8" value="" style="edgeStyle=orthogonalEdgeStyle;rounded=0;orthogonalLoop=1;jettySize=auto;html=1;" parent="1" source="NABCYClFSlzbWUvjq0Ez-5" target="NABCYClFSlzbWUvjq0Ez-7" edge="1">
          <mxGeometry relative="1" as="geometry" />
        </mxCell>
        <mxCell id="NABCYClFSlzbWUvjq0Ez-11" value="" style="edgeStyle=orthogonalEdgeStyle;rounded=0;orthogonalLoop=1;jettySize=auto;html=1;" parent="1" source="NABCYClFSlzbWUvjq0Ez-5" target="NABCYClFSlzbWUvjq0Ez-10" edge="1">
          <mxGeometry relative="1" as="geometry" />
        </mxCell>
        <mxCell id="NABCYClFSlzbWUvjq0Ez-5" value="if(username == &#39;admin&#39;) || (password == &#39;admin)" style="rhombus;whiteSpace=wrap;html=1;strokeWidth=2;rounded=1;arcSize=12;" parent="1" vertex="1">
          <mxGeometry x="60" y="310" width="160" height="150" as="geometry" />
        </mxCell>
        <mxCell id="NABCYClFSlzbWUvjq0Ez-7" value="wrong password" style="shape=parallelogram;perimeter=parallelogramPerimeter;whiteSpace=wrap;html=1;fixedSize=1;strokeWidth=2;rounded=1;arcSize=12;" parent="1" vertex="1">
          <mxGeometry x="330" y="355" width="120" height="60" as="geometry" />
        </mxCell>
        <mxCell id="NABCYClFSlzbWUvjq0Ez-9" value="" style="endArrow=classic;html=1;rounded=0;entryX=1;entryY=0.5;entryDx=0;entryDy=0;" parent="1" target="NABCYClFSlzbWUvjq0Ez-2" edge="1">
          <mxGeometry width="50" height="50" relative="1" as="geometry">
            <mxPoint x="400" y="350" as="sourcePoint" />
            <mxPoint x="450" y="280" as="targetPoint" />
            <Array as="points">
              <mxPoint x="400" y="190" />
            </Array>
          </mxGeometry>
        </mxCell>
        <mxCell id="NABCYClFSlzbWUvjq0Ez-18" value="" style="edgeStyle=orthogonalEdgeStyle;rounded=0;orthogonalLoop=1;jettySize=auto;html=1;" parent="1" source="NABCYClFSlzbWUvjq0Ez-10" target="NABCYClFSlzbWUvjq0Ez-17" edge="1">
          <mxGeometry relative="1" as="geometry" />
        </mxCell>
        <mxCell id="NABCYClFSlzbWUvjq0Ez-10" value="initialize&lt;br&gt;Database" style="rounded=1;whiteSpace=wrap;html=1;absoluteArcSize=1;arcSize=14;strokeWidth=2;" parent="1" vertex="1">
          <mxGeometry x="90" y="500" width="100" height="100" as="geometry" />
        </mxCell>
        <mxCell id="NABCYClFSlzbWUvjq0Ez-13" value="NO" style="text;html=1;align=center;verticalAlign=middle;resizable=0;points=[];autosize=1;strokeColor=none;fillColor=none;" parent="1" vertex="1">
          <mxGeometry x="250" y="338" width="40" height="30" as="geometry" />
        </mxCell>
        <mxCell id="NABCYClFSlzbWUvjq0Ez-14" value="YES" style="text;html=1;align=center;verticalAlign=middle;resizable=0;points=[];autosize=1;strokeColor=none;fillColor=none;" parent="1" vertex="1">
          <mxGeometry x="165" y="448" width="50" height="30" as="geometry" />
        </mxCell>
        <mxCell id="NABCYClFSlzbWUvjq0Ez-20" value="" style="edgeStyle=orthogonalEdgeStyle;rounded=0;orthogonalLoop=1;jettySize=auto;html=1;" parent="1" source="NABCYClFSlzbWUvjq0Ez-17" target="NABCYClFSlzbWUvjq0Ez-19" edge="1">
          <mxGeometry relative="1" as="geometry" />
        </mxCell>
        <mxCell id="NABCYClFSlzbWUvjq0Ez-17" value="&lt;div&gt;Choose:&lt;/div&gt;&lt;div&gt;1.View Medicine Stock&lt;/div&gt;&lt;div&gt;2.Add Medicine&lt;/div&gt;&lt;div&gt;3.Buy Medicine&lt;/div&gt;&lt;div&gt;4. View Transactions&lt;/div&gt;&lt;div&gt;5. Add Medicine Stock&lt;/div&gt;&lt;div&gt;6. View Total Earnings&lt;/div&gt;&lt;div&gt;7. Search Medicine By ID&lt;/div&gt;&lt;div&gt;0. Exit&lt;/div&gt;" style="shape=parallelogram;perimeter=parallelogramPerimeter;whiteSpace=wrap;html=1;fixedSize=1;rounded=1;arcSize=14;strokeWidth=2;" parent="1" vertex="1">
          <mxGeometry x="55" y="670" width="170" height="150" as="geometry" />
        </mxCell>
        <mxCell id="NABCYClFSlzbWUvjq0Ez-22" value="" style="edgeStyle=orthogonalEdgeStyle;rounded=0;orthogonalLoop=1;jettySize=auto;html=1;" parent="1" source="NABCYClFSlzbWUvjq0Ez-19" target="NABCYClFSlzbWUvjq0Ez-21" edge="1">
          <mxGeometry relative="1" as="geometry" />
        </mxCell>
        <mxCell id="NABCYClFSlzbWUvjq0Ez-36" value="" style="edgeStyle=orthogonalEdgeStyle;rounded=0;orthogonalLoop=1;jettySize=auto;html=1;" parent="1" source="NABCYClFSlzbWUvjq0Ez-19" target="NABCYClFSlzbWUvjq0Ez-35" edge="1">
          <mxGeometry relative="1" as="geometry" />
        </mxCell>
        <mxCell id="NABCYClFSlzbWUvjq0Ez-19" value="choose 1" style="rhombus;whiteSpace=wrap;html=1;rounded=1;arcSize=14;strokeWidth=2;" parent="1" vertex="1">
          <mxGeometry x="100" y="870" width="80" height="80" as="geometry" />
        </mxCell>
        <mxCell id="NABCYClFSlzbWUvjq0Ez-24" value="" style="edgeStyle=orthogonalEdgeStyle;rounded=0;orthogonalLoop=1;jettySize=auto;html=1;" parent="1" source="NABCYClFSlzbWUvjq0Ez-21" target="NABCYClFSlzbWUvjq0Ez-23" edge="1">
          <mxGeometry relative="1" as="geometry" />
        </mxCell>
        <mxCell id="NABCYClFSlzbWUvjq0Ez-21" value="fetch medicine stock from the database" style="rounded=1;whiteSpace=wrap;html=1;absoluteArcSize=1;arcSize=14;strokeWidth=2;" parent="1" vertex="1">
          <mxGeometry x="225" y="860" width="100" height="100" as="geometry" />
        </mxCell>
        <mxCell id="NABCYClFSlzbWUvjq0Ez-34" value="" style="edgeStyle=orthogonalEdgeStyle;rounded=0;orthogonalLoop=1;jettySize=auto;html=1;" parent="1" source="NABCYClFSlzbWUvjq0Ez-23" target="NABCYClFSlzbWUvjq0Ez-33" edge="1">
          <mxGeometry relative="1" as="geometry" />
        </mxCell>
        <mxCell id="NABCYClFSlzbWUvjq0Ez-23" value="print medicine &lt;br&gt;stock" style="shape=parallelogram;perimeter=parallelogramPerimeter;whiteSpace=wrap;html=1;fixedSize=1;rounded=1;arcSize=14;strokeWidth=2;" parent="1" vertex="1">
          <mxGeometry x="395" y="880" width="120" height="60" as="geometry" />
        </mxCell>
        <mxCell id="NABCYClFSlzbWUvjq0Ez-28" value="" style="edgeStyle=orthogonalEdgeStyle;rounded=0;orthogonalLoop=1;jettySize=auto;html=1;" parent="1" target="NABCYClFSlzbWUvjq0Ez-17" edge="1">
          <mxGeometry relative="1" as="geometry">
            <mxPoint x="290" y="745" as="sourcePoint" />
          </mxGeometry>
        </mxCell>
        <mxCell id="NABCYClFSlzbWUvjq0Ez-32" value="MENU" style="strokeWidth=2;html=1;shape=mxgraph.flowchart.start_2;whiteSpace=wrap;" parent="1" vertex="1">
          <mxGeometry x="290" y="715" width="60" height="60" as="geometry" />
        </mxCell>
        <mxCell id="NABCYClFSlzbWUvjq0Ez-33" value="MENU" style="strokeWidth=2;html=1;shape=mxgraph.flowchart.start_2;whiteSpace=wrap;" parent="1" vertex="1">
          <mxGeometry x="560" y="880" width="60" height="60" as="geometry" />
        </mxCell>
        <mxCell id="NABCYClFSlzbWUvjq0Ez-38" value="" style="edgeStyle=orthogonalEdgeStyle;rounded=0;orthogonalLoop=1;jettySize=auto;html=1;" parent="1" source="NABCYClFSlzbWUvjq0Ez-35" target="NABCYClFSlzbWUvjq0Ez-37" edge="1">
          <mxGeometry relative="1" as="geometry" />
        </mxCell>
        <mxCell id="NABCYClFSlzbWUvjq0Ez-44" value="" style="edgeStyle=orthogonalEdgeStyle;rounded=0;orthogonalLoop=1;jettySize=auto;html=1;" parent="1" source="NABCYClFSlzbWUvjq0Ez-35" target="NABCYClFSlzbWUvjq0Ez-43" edge="1">
          <mxGeometry relative="1" as="geometry" />
        </mxCell>
        <mxCell id="NABCYClFSlzbWUvjq0Ez-35" value="choose 2" style="rhombus;whiteSpace=wrap;html=1;rounded=1;arcSize=14;strokeWidth=2;" parent="1" vertex="1">
          <mxGeometry x="100" y="1020" width="80" height="80" as="geometry" />
        </mxCell>
        <mxCell id="NABCYClFSlzbWUvjq0Ez-40" value="" style="edgeStyle=orthogonalEdgeStyle;rounded=0;orthogonalLoop=1;jettySize=auto;html=1;" parent="1" source="NABCYClFSlzbWUvjq0Ez-37" target="NABCYClFSlzbWUvjq0Ez-39" edge="1">
          <mxGeometry relative="1" as="geometry" />
        </mxCell>
        <mxCell id="NABCYClFSlzbWUvjq0Ez-37" value="input the name, stock and price&amp;nbsp;of the &lt;br&gt;medicine to be added" style="shape=parallelogram;perimeter=parallelogramPerimeter;whiteSpace=wrap;html=1;fixedSize=1;rounded=1;arcSize=14;strokeWidth=2;" parent="1" vertex="1">
          <mxGeometry x="240" y="1025" width="170" height="70" as="geometry" />
        </mxCell>
        <mxCell id="NABCYClFSlzbWUvjq0Ez-42" value="" style="edgeStyle=orthogonalEdgeStyle;rounded=0;orthogonalLoop=1;jettySize=auto;html=1;" parent="1" source="NABCYClFSlzbWUvjq0Ez-39" target="NABCYClFSlzbWUvjq0Ez-41" edge="1">
          <mxGeometry relative="1" as="geometry" />
        </mxCell>
        <mxCell id="NABCYClFSlzbWUvjq0Ez-39" value="insert the medicine, stock and price to the database" style="rounded=1;whiteSpace=wrap;html=1;absoluteArcSize=1;arcSize=14;strokeWidth=2;" parent="1" vertex="1">
          <mxGeometry x="460" y="1010" width="100" height="100" as="geometry" />
        </mxCell>
        <mxCell id="NABCYClFSlzbWUvjq0Ez-41" value="MENU" style="strokeWidth=2;html=1;shape=mxgraph.flowchart.start_2;whiteSpace=wrap;" parent="1" vertex="1">
          <mxGeometry x="670" y="950" width="60" height="60" as="geometry" />
        </mxCell>
        <mxCell id="NABCYClFSlzbWUvjq0Ez-48" value="" style="edgeStyle=orthogonalEdgeStyle;rounded=0;orthogonalLoop=1;jettySize=auto;html=1;" parent="1" source="NABCYClFSlzbWUvjq0Ez-43" target="NABCYClFSlzbWUvjq0Ez-47" edge="1">
          <mxGeometry relative="1" as="geometry" />
        </mxCell>
        <mxCell id="NABCYClFSlzbWUvjq0Ez-71" value="" style="edgeStyle=orthogonalEdgeStyle;rounded=0;orthogonalLoop=1;jettySize=auto;html=1;" parent="1" source="NABCYClFSlzbWUvjq0Ez-43" target="NABCYClFSlzbWUvjq0Ez-70" edge="1">
          <mxGeometry relative="1" as="geometry" />
        </mxCell>
        <mxCell id="NABCYClFSlzbWUvjq0Ez-43" value="choose 3" style="rhombus;whiteSpace=wrap;html=1;rounded=1;arcSize=14;strokeWidth=2;" parent="1" vertex="1">
          <mxGeometry x="100" y="1180" width="80" height="80" as="geometry" />
        </mxCell>
        <mxCell id="NABCYClFSlzbWUvjq0Ez-53" value="" style="edgeStyle=orthogonalEdgeStyle;rounded=0;orthogonalLoop=1;jettySize=auto;html=1;" parent="1" source="NABCYClFSlzbWUvjq0Ez-45" target="NABCYClFSlzbWUvjq0Ez-52" edge="1">
          <mxGeometry relative="1" as="geometry" />
        </mxCell>
        <mxCell id="NABCYClFSlzbWUvjq0Ez-45" value="input the customer name, medicine ID, and money amount" style="shape=parallelogram;perimeter=parallelogramPerimeter;whiteSpace=wrap;html=1;fixedSize=1;rounded=1;arcSize=14;strokeWidth=2;" parent="1" vertex="1">
          <mxGeometry x="590" y="1185" width="170" height="70" as="geometry" />
        </mxCell>
        <mxCell id="NABCYClFSlzbWUvjq0Ez-50" value="" style="edgeStyle=orthogonalEdgeStyle;rounded=0;orthogonalLoop=1;jettySize=auto;html=1;" parent="1" source="NABCYClFSlzbWUvjq0Ez-47" target="NABCYClFSlzbWUvjq0Ez-49" edge="1">
          <mxGeometry relative="1" as="geometry" />
        </mxCell>
        <mxCell id="NABCYClFSlzbWUvjq0Ez-47" value="fetch all available medicine from the database" style="rounded=1;whiteSpace=wrap;html=1;absoluteArcSize=1;arcSize=14;strokeWidth=2;" parent="1" vertex="1">
          <mxGeometry x="250" y="1170" width="100" height="100" as="geometry" />
        </mxCell>
        <mxCell id="NABCYClFSlzbWUvjq0Ez-51" value="" style="edgeStyle=orthogonalEdgeStyle;rounded=0;orthogonalLoop=1;jettySize=auto;html=1;" parent="1" source="NABCYClFSlzbWUvjq0Ez-49" target="NABCYClFSlzbWUvjq0Ez-45" edge="1">
          <mxGeometry relative="1" as="geometry" />
        </mxCell>
        <mxCell id="NABCYClFSlzbWUvjq0Ez-49" value="print all available medicines" style="shape=parallelogram;perimeter=parallelogramPerimeter;whiteSpace=wrap;html=1;fixedSize=1;rounded=1;arcSize=14;strokeWidth=2;" parent="1" vertex="1">
          <mxGeometry x="420" y="1190" width="120" height="60" as="geometry" />
        </mxCell>
        <mxCell id="NABCYClFSlzbWUvjq0Ez-55" value="" style="edgeStyle=orthogonalEdgeStyle;rounded=0;orthogonalLoop=1;jettySize=auto;html=1;" parent="1" source="NABCYClFSlzbWUvjq0Ez-52" target="NABCYClFSlzbWUvjq0Ez-54" edge="1">
          <mxGeometry relative="1" as="geometry" />
        </mxCell>
        <mxCell id="NABCYClFSlzbWUvjq0Ez-52" value="calculate total&amp;nbsp;" style="rounded=1;whiteSpace=wrap;html=1;absoluteArcSize=1;arcSize=14;strokeWidth=2;" parent="1" vertex="1">
          <mxGeometry x="850" y="1170" width="100" height="100" as="geometry" />
        </mxCell>
        <mxCell id="NABCYClFSlzbWUvjq0Ez-58" value="" style="edgeStyle=orthogonalEdgeStyle;rounded=0;orthogonalLoop=1;jettySize=auto;html=1;" parent="1" source="NABCYClFSlzbWUvjq0Ez-54" target="NABCYClFSlzbWUvjq0Ez-57" edge="1">
          <mxGeometry relative="1" as="geometry" />
        </mxCell>
        <mxCell id="NABCYClFSlzbWUvjq0Ez-65" value="" style="edgeStyle=orthogonalEdgeStyle;rounded=0;orthogonalLoop=1;jettySize=auto;html=1;" parent="1" source="NABCYClFSlzbWUvjq0Ez-54" target="NABCYClFSlzbWUvjq0Ez-64" edge="1">
          <mxGeometry relative="1" as="geometry" />
        </mxCell>
        <mxCell id="NABCYClFSlzbWUvjq0Ez-54" value="if(customerMoney &amp;gt;= total)" style="rhombus;whiteSpace=wrap;html=1;rounded=1;arcSize=14;strokeWidth=2;" parent="1" vertex="1">
          <mxGeometry x="1060" y="1152.5" width="130" height="135" as="geometry" />
        </mxCell>
        <mxCell id="NABCYClFSlzbWUvjq0Ez-57" value="print that the money isn&#39;t enough" style="shape=parallelogram;perimeter=parallelogramPerimeter;whiteSpace=wrap;html=1;fixedSize=1;rounded=1;arcSize=14;strokeWidth=2;" parent="1" vertex="1">
          <mxGeometry x="1040" y="1000" width="170" height="80" as="geometry" />
        </mxCell>
        <mxCell id="NABCYClFSlzbWUvjq0Ez-59" value="" style="endArrow=classic;html=1;rounded=0;entryX=0.5;entryY=0;entryDx=0;entryDy=0;" parent="1" source="NABCYClFSlzbWUvjq0Ez-57" target="NABCYClFSlzbWUvjq0Ez-45" edge="1">
          <mxGeometry width="50" height="50" relative="1" as="geometry">
            <mxPoint x="1010" y="1170" as="sourcePoint" />
            <mxPoint x="680" y="1170" as="targetPoint" />
            <Array as="points">
              <mxPoint x="675" y="1040" />
            </Array>
          </mxGeometry>
        </mxCell>
        <mxCell id="NABCYClFSlzbWUvjq0Ez-60" value="NO" style="text;html=1;align=center;verticalAlign=middle;resizable=0;points=[];autosize=1;strokeColor=none;fillColor=none;" parent="1" vertex="1">
          <mxGeometry x="1140" y="1138" width="40" height="30" as="geometry" />
        </mxCell>
        <mxCell id="NABCYClFSlzbWUvjq0Ez-63" value="YES" style="text;html=1;align=center;verticalAlign=middle;resizable=0;points=[];autosize=1;strokeColor=none;fillColor=none;" parent="1" vertex="1">
          <mxGeometry x="1185" y="1178" width="50" height="30" as="geometry" />
        </mxCell>
        <mxCell id="NABCYClFSlzbWUvjq0Ez-67" value="" style="edgeStyle=orthogonalEdgeStyle;rounded=0;orthogonalLoop=1;jettySize=auto;html=1;" parent="1" source="NABCYClFSlzbWUvjq0Ez-64" target="NABCYClFSlzbWUvjq0Ez-66" edge="1">
          <mxGeometry relative="1" as="geometry" />
        </mxCell>
        <mxCell id="NABCYClFSlzbWUvjq0Ez-64" value="reduce the stock in the database according to the input and insert transaction details into the transaction table" style="rounded=1;whiteSpace=wrap;html=1;absoluteArcSize=1;arcSize=14;strokeWidth=2;" parent="1" vertex="1">
          <mxGeometry x="1290" y="1170" width="130" height="100" as="geometry" />
        </mxCell>
        <mxCell id="NABCYClFSlzbWUvjq0Ez-69" value="" style="edgeStyle=orthogonalEdgeStyle;rounded=0;orthogonalLoop=1;jettySize=auto;html=1;" parent="1" source="NABCYClFSlzbWUvjq0Ez-66" target="NABCYClFSlzbWUvjq0Ez-68" edge="1">
          <mxGeometry relative="1" as="geometry" />
        </mxCell>
        <mxCell id="NABCYClFSlzbWUvjq0Ez-66" value="print the receipt" style="shape=parallelogram;perimeter=parallelogramPerimeter;whiteSpace=wrap;html=1;fixedSize=1;rounded=1;arcSize=14;strokeWidth=2;" parent="1" vertex="1">
          <mxGeometry x="1505" y="1190" width="120" height="60" as="geometry" />
        </mxCell>
        <mxCell id="NABCYClFSlzbWUvjq0Ez-68" value="MENU" style="strokeWidth=2;html=1;shape=mxgraph.flowchart.start_2;whiteSpace=wrap;" parent="1" vertex="1">
          <mxGeometry x="1670" y="1190" width="60" height="60" as="geometry" />
        </mxCell>
        <mxCell id="NABCYClFSlzbWUvjq0Ez-73" value="" style="edgeStyle=orthogonalEdgeStyle;rounded=0;orthogonalLoop=1;jettySize=auto;html=1;" parent="1" source="NABCYClFSlzbWUvjq0Ez-70" edge="1">
          <mxGeometry relative="1" as="geometry">
            <mxPoint x="260" y="1380" as="targetPoint" />
          </mxGeometry>
        </mxCell>
        <mxCell id="NABCYClFSlzbWUvjq0Ez-80" value="" style="edgeStyle=orthogonalEdgeStyle;rounded=0;orthogonalLoop=1;jettySize=auto;html=1;" parent="1" source="NABCYClFSlzbWUvjq0Ez-70" target="NABCYClFSlzbWUvjq0Ez-79" edge="1">
          <mxGeometry relative="1" as="geometry" />
        </mxCell>
        <mxCell id="NABCYClFSlzbWUvjq0Ez-70" value="choose 4" style="rhombus;whiteSpace=wrap;html=1;rounded=1;arcSize=14;strokeWidth=2;" parent="1" vertex="1">
          <mxGeometry x="100" y="1340" width="80" height="80" as="geometry" />
        </mxCell>
        <mxCell id="NABCYClFSlzbWUvjq0Ez-76" value="" style="edgeStyle=orthogonalEdgeStyle;rounded=0;orthogonalLoop=1;jettySize=auto;html=1;" parent="1" source="NABCYClFSlzbWUvjq0Ez-74" target="NABCYClFSlzbWUvjq0Ez-75" edge="1">
          <mxGeometry relative="1" as="geometry" />
        </mxCell>
        <mxCell id="NABCYClFSlzbWUvjq0Ez-74" value="fetch all transaction details from the database" style="rounded=1;whiteSpace=wrap;html=1;absoluteArcSize=1;arcSize=14;strokeWidth=2;" parent="1" vertex="1">
          <mxGeometry x="250" y="1330" width="110" height="100" as="geometry" />
        </mxCell>
        <mxCell id="NABCYClFSlzbWUvjq0Ez-78" value="" style="edgeStyle=orthogonalEdgeStyle;rounded=0;orthogonalLoop=1;jettySize=auto;html=1;" parent="1" source="NABCYClFSlzbWUvjq0Ez-75" target="NABCYClFSlzbWUvjq0Ez-77" edge="1">
          <mxGeometry relative="1" as="geometry" />
        </mxCell>
        <mxCell id="NABCYClFSlzbWUvjq0Ez-75" value="print all available transaction details" style="shape=parallelogram;perimeter=parallelogramPerimeter;whiteSpace=wrap;html=1;fixedSize=1;rounded=1;arcSize=14;strokeWidth=2;" parent="1" vertex="1">
          <mxGeometry x="435" y="1350" width="145" height="60" as="geometry" />
        </mxCell>
        <mxCell id="NABCYClFSlzbWUvjq0Ez-77" value="MENU" style="strokeWidth=2;html=1;shape=mxgraph.flowchart.start_2;whiteSpace=wrap;" parent="1" vertex="1">
          <mxGeometry x="630" y="1350" width="60" height="60" as="geometry" />
        </mxCell>
        <mxCell id="NABCYClFSlzbWUvjq0Ez-82" value="" style="edgeStyle=orthogonalEdgeStyle;rounded=0;orthogonalLoop=1;jettySize=auto;html=1;" parent="1" source="NABCYClFSlzbWUvjq0Ez-79" target="NABCYClFSlzbWUvjq0Ez-81" edge="1">
          <mxGeometry relative="1" as="geometry" />
        </mxCell>
        <mxCell id="NABCYClFSlzbWUvjq0Ez-98" value="" style="edgeStyle=orthogonalEdgeStyle;rounded=0;orthogonalLoop=1;jettySize=auto;html=1;" parent="1" source="NABCYClFSlzbWUvjq0Ez-79" target="NABCYClFSlzbWUvjq0Ez-97" edge="1">
          <mxGeometry relative="1" as="geometry" />
        </mxCell>
        <mxCell id="NABCYClFSlzbWUvjq0Ez-79" value="choose 5" style="rhombus;whiteSpace=wrap;html=1;rounded=1;arcSize=14;strokeWidth=2;" parent="1" vertex="1">
          <mxGeometry x="100" y="1500" width="80" height="80" as="geometry" />
        </mxCell>
        <mxCell id="NABCYClFSlzbWUvjq0Ez-84" value="" style="edgeStyle=orthogonalEdgeStyle;rounded=0;orthogonalLoop=1;jettySize=auto;html=1;" parent="1" source="NABCYClFSlzbWUvjq0Ez-81" target="NABCYClFSlzbWUvjq0Ez-83" edge="1">
          <mxGeometry relative="1" as="geometry" />
        </mxCell>
        <mxCell id="NABCYClFSlzbWUvjq0Ez-81" value="input the ID of the medicine &lt;br&gt;you want to add stock&amp;nbsp;" style="shape=parallelogram;perimeter=parallelogramPerimeter;whiteSpace=wrap;html=1;fixedSize=1;rounded=1;arcSize=14;strokeWidth=2;" parent="1" vertex="1">
          <mxGeometry x="240" y="1500" width="200" height="80" as="geometry" />
        </mxCell>
        <mxCell id="NABCYClFSlzbWUvjq0Ez-88" value="" style="edgeStyle=orthogonalEdgeStyle;rounded=0;orthogonalLoop=1;jettySize=auto;html=1;" parent="1" source="NABCYClFSlzbWUvjq0Ez-83" target="NABCYClFSlzbWUvjq0Ez-87" edge="1">
          <mxGeometry relative="1" as="geometry" />
        </mxCell>
        <mxCell id="NABCYClFSlzbWUvjq0Ez-92" value="" style="edgeStyle=orthogonalEdgeStyle;rounded=0;orthogonalLoop=1;jettySize=auto;html=1;" parent="1" source="NABCYClFSlzbWUvjq0Ez-83" target="NABCYClFSlzbWUvjq0Ez-91" edge="1">
          <mxGeometry relative="1" as="geometry" />
        </mxCell>
        <mxCell id="NABCYClFSlzbWUvjq0Ez-83" value="check if the medicine exist" style="rhombus;whiteSpace=wrap;html=1;rounded=1;arcSize=14;strokeWidth=2;" parent="1" vertex="1">
          <mxGeometry x="505" y="1487.5" width="105" height="105" as="geometry" />
        </mxCell>
        <mxCell id="NABCYClFSlzbWUvjq0Ez-87" value="print that the medicine doesn&#39;t exist on database" style="shape=parallelogram;perimeter=parallelogramPerimeter;whiteSpace=wrap;html=1;fixedSize=1;rounded=1;arcSize=14;strokeWidth=2;" parent="1" vertex="1">
          <mxGeometry x="477.5" y="1660" width="160" height="70" as="geometry" />
        </mxCell>
        <mxCell id="NABCYClFSlzbWUvjq0Ez-89" value="" style="endArrow=classic;html=1;rounded=0;entryX=0.423;entryY=1.04;entryDx=0;entryDy=0;entryPerimeter=0;exitX=0.027;exitY=0.553;exitDx=0;exitDy=0;exitPerimeter=0;" parent="1" source="NABCYClFSlzbWUvjq0Ez-87" target="NABCYClFSlzbWUvjq0Ez-81" edge="1">
          <mxGeometry width="50" height="50" relative="1" as="geometry">
            <mxPoint x="470" y="1690" as="sourcePoint" />
            <mxPoint x="520" y="1560" as="targetPoint" />
            <Array as="points">
              <mxPoint x="325" y="1699" />
            </Array>
          </mxGeometry>
        </mxCell>
        <mxCell id="NABCYClFSlzbWUvjq0Ez-90" value="NO" style="text;html=1;align=center;verticalAlign=middle;resizable=0;points=[];autosize=1;strokeColor=none;fillColor=none;" parent="1" vertex="1">
          <mxGeometry x="520" y="1598" width="40" height="30" as="geometry" />
        </mxCell>
        <mxCell id="NABCYClFSlzbWUvjq0Ez-94" value="" style="edgeStyle=orthogonalEdgeStyle;rounded=0;orthogonalLoop=1;jettySize=auto;html=1;" parent="1" source="NABCYClFSlzbWUvjq0Ez-91" target="NABCYClFSlzbWUvjq0Ez-93" edge="1">
          <mxGeometry relative="1" as="geometry" />
        </mxCell>
        <mxCell id="NABCYClFSlzbWUvjq0Ez-91" value="Update the stock in the database according to the medicine ID and inputted stock quantity" style="rounded=1;whiteSpace=wrap;html=1;absoluteArcSize=1;arcSize=14;strokeWidth=2;" parent="1" vertex="1">
          <mxGeometry x="670" y="1490" width="100" height="100" as="geometry" />
        </mxCell>
        <mxCell id="NABCYClFSlzbWUvjq0Ez-96" value="" style="edgeStyle=orthogonalEdgeStyle;rounded=0;orthogonalLoop=1;jettySize=auto;html=1;" parent="1" source="NABCYClFSlzbWUvjq0Ez-93" target="NABCYClFSlzbWUvjq0Ez-95" edge="1">
          <mxGeometry relative="1" as="geometry" />
        </mxCell>
        <mxCell id="NABCYClFSlzbWUvjq0Ez-93" value="print &lt;br&gt;the medicine stock has been successfully added" style="shape=parallelogram;perimeter=parallelogramPerimeter;whiteSpace=wrap;html=1;fixedSize=1;rounded=1;arcSize=14;strokeWidth=2;" parent="1" vertex="1">
          <mxGeometry x="840" y="1500" width="190" height="80" as="geometry" />
        </mxCell>
        <mxCell id="NABCYClFSlzbWUvjq0Ez-95" value="MENU" style="strokeWidth=2;html=1;shape=mxgraph.flowchart.start_2;whiteSpace=wrap;" parent="1" vertex="1">
          <mxGeometry x="1095" y="1510" width="60" height="60" as="geometry" />
        </mxCell>
        <mxCell id="NABCYClFSlzbWUvjq0Ez-100" value="" style="edgeStyle=orthogonalEdgeStyle;rounded=0;orthogonalLoop=1;jettySize=auto;html=1;" parent="1" source="NABCYClFSlzbWUvjq0Ez-97" target="NABCYClFSlzbWUvjq0Ez-99" edge="1">
          <mxGeometry relative="1" as="geometry" />
        </mxCell>
        <mxCell id="NABCYClFSlzbWUvjq0Ez-108" value="" style="edgeStyle=orthogonalEdgeStyle;rounded=0;orthogonalLoop=1;jettySize=auto;html=1;" parent="1" source="NABCYClFSlzbWUvjq0Ez-97" target="NABCYClFSlzbWUvjq0Ez-107" edge="1">
          <mxGeometry relative="1" as="geometry" />
        </mxCell>
        <mxCell id="NABCYClFSlzbWUvjq0Ez-97" value="choose 6" style="rhombus;whiteSpace=wrap;html=1;rounded=1;arcSize=14;strokeWidth=2;" parent="1" vertex="1">
          <mxGeometry x="100" y="1810" width="80" height="80" as="geometry" />
        </mxCell>
        <mxCell id="NABCYClFSlzbWUvjq0Ez-102" value="" style="edgeStyle=orthogonalEdgeStyle;rounded=0;orthogonalLoop=1;jettySize=auto;html=1;" parent="1" source="NABCYClFSlzbWUvjq0Ez-99" target="NABCYClFSlzbWUvjq0Ez-101" edge="1">
          <mxGeometry relative="1" as="geometry" />
        </mxCell>
        <mxCell id="NABCYClFSlzbWUvjq0Ez-99" value="load financial report and customer from the database" style="rounded=1;whiteSpace=wrap;html=1;absoluteArcSize=1;arcSize=14;strokeWidth=2;" parent="1" vertex="1">
          <mxGeometry x="240" y="1800" width="100" height="100" as="geometry" />
        </mxCell>
        <mxCell id="NABCYClFSlzbWUvjq0Ez-104" value="" style="edgeStyle=orthogonalEdgeStyle;rounded=0;orthogonalLoop=1;jettySize=auto;html=1;" parent="1" source="NABCYClFSlzbWUvjq0Ez-101" target="NABCYClFSlzbWUvjq0Ez-103" edge="1">
          <mxGeometry relative="1" as="geometry" />
        </mxCell>
        <mxCell id="NABCYClFSlzbWUvjq0Ez-101" value="fetch and calculate revenue and total number of customers" style="rounded=1;whiteSpace=wrap;html=1;absoluteArcSize=1;arcSize=14;strokeWidth=2;" parent="1" vertex="1">
          <mxGeometry x="420" y="1800" width="100" height="100" as="geometry" />
        </mxCell>
        <mxCell id="NABCYClFSlzbWUvjq0Ez-106" value="" style="edgeStyle=orthogonalEdgeStyle;rounded=0;orthogonalLoop=1;jettySize=auto;html=1;" parent="1" source="NABCYClFSlzbWUvjq0Ez-103" target="NABCYClFSlzbWUvjq0Ez-105" edge="1">
          <mxGeometry relative="1" as="geometry" />
        </mxCell>
        <mxCell id="NABCYClFSlzbWUvjq0Ez-103" value="print the financial report" style="shape=parallelogram;perimeter=parallelogramPerimeter;whiteSpace=wrap;html=1;fixedSize=1;rounded=1;arcSize=14;strokeWidth=2;" parent="1" vertex="1">
          <mxGeometry x="590" y="1820" width="120" height="60" as="geometry" />
        </mxCell>
        <mxCell id="NABCYClFSlzbWUvjq0Ez-105" value="MENU" style="strokeWidth=2;html=1;shape=mxgraph.flowchart.start_2;whiteSpace=wrap;" parent="1" vertex="1">
          <mxGeometry x="750" y="1820" width="60" height="60" as="geometry" />
        </mxCell>
        <mxCell id="Got45nBeuuP8gM_Kh5bP-8" value="" style="edgeStyle=orthogonalEdgeStyle;rounded=0;orthogonalLoop=1;jettySize=auto;html=1;" edge="1" parent="1" source="NABCYClFSlzbWUvjq0Ez-107" target="Got45nBeuuP8gM_Kh5bP-7">
          <mxGeometry relative="1" as="geometry" />
        </mxCell>
        <mxCell id="Got45nBeuuP8gM_Kh5bP-18" value="" style="edgeStyle=orthogonalEdgeStyle;rounded=0;orthogonalLoop=1;jettySize=auto;html=1;" edge="1" parent="1" source="NABCYClFSlzbWUvjq0Ez-107" target="Got45nBeuuP8gM_Kh5bP-17">
          <mxGeometry relative="1" as="geometry" />
        </mxCell>
        <mxCell id="NABCYClFSlzbWUvjq0Ez-107" value="choose 7" style="rhombus;whiteSpace=wrap;html=1;rounded=1;arcSize=14;strokeWidth=2;" parent="1" vertex="1">
          <mxGeometry x="100" y="1970" width="80" height="80" as="geometry" />
        </mxCell>
        <mxCell id="NABCYClFSlzbWUvjq0Ez-131" value="" style="edgeStyle=orthogonalEdgeStyle;elbow=horizontal;endArrow=classic;html=1;rounded=0;endSize=8;startSize=8;entryX=0;entryY=0.5;entryDx=0;entryDy=0;exitX=0.5;exitY=1;exitDx=0;exitDy=0;" parent="1" source="Got45nBeuuP8gM_Kh5bP-17" target="NABCYClFSlzbWUvjq0Ez-19" edge="1">
          <mxGeometry width="50" height="50" relative="1" as="geometry">
            <mxPoint x="179.99" y="2220" as="sourcePoint" />
            <mxPoint x="73.98999999999978" y="910" as="targetPoint" />
            <Array as="points">
              <mxPoint x="140" y="2285" />
              <mxPoint x="-10" y="2285" />
              <mxPoint x="-10" y="910" />
            </Array>
          </mxGeometry>
        </mxCell>
        <mxCell id="I_38R0GxSV5YbUGZT-WZ-1" value="YES" style="text;html=1;align=center;verticalAlign=middle;resizable=0;points=[];autosize=1;strokeColor=none;fillColor=none;" parent="1" vertex="1">
          <mxGeometry x="605" y="1508" width="50" height="30" as="geometry" />
        </mxCell>
        <mxCell id="Got45nBeuuP8gM_Kh5bP-28" value="" style="edgeStyle=orthogonalEdgeStyle;rounded=0;orthogonalLoop=1;jettySize=auto;html=1;" edge="1" parent="1" source="Got45nBeuuP8gM_Kh5bP-7" target="Got45nBeuuP8gM_Kh5bP-26">
          <mxGeometry relative="1" as="geometry" />
        </mxCell>
        <mxCell id="Got45nBeuuP8gM_Kh5bP-7" value="input the medicine name" style="shape=parallelogram;perimeter=parallelogramPerimeter;whiteSpace=wrap;html=1;fixedSize=1;rounded=1;arcSize=14;strokeWidth=2;" vertex="1" parent="1">
          <mxGeometry x="240" y="1980" width="160" height="60" as="geometry" />
        </mxCell>
        <mxCell id="Got45nBeuuP8gM_Kh5bP-14" value="" style="edgeStyle=orthogonalEdgeStyle;rounded=0;orthogonalLoop=1;jettySize=auto;html=1;" edge="1" parent="1" source="Got45nBeuuP8gM_Kh5bP-11" target="Got45nBeuuP8gM_Kh5bP-13">
          <mxGeometry relative="1" as="geometry" />
        </mxCell>
        <mxCell id="Got45nBeuuP8gM_Kh5bP-11" value="check if medicine exist" style="rhombus;whiteSpace=wrap;html=1;rounded=1;arcSize=14;strokeWidth=2;" vertex="1" parent="1">
          <mxGeometry x="720" y="1950" width="110" height="120" as="geometry" />
        </mxCell>
        <mxCell id="Got45nBeuuP8gM_Kh5bP-34" value="" style="edgeStyle=orthogonalEdgeStyle;rounded=0;orthogonalLoop=1;jettySize=auto;html=1;" edge="1" parent="1" source="Got45nBeuuP8gM_Kh5bP-13" target="Got45nBeuuP8gM_Kh5bP-33">
          <mxGeometry relative="1" as="geometry" />
        </mxCell>
        <mxCell id="Got45nBeuuP8gM_Kh5bP-13" value="print the medicine id" style="shape=parallelogram;perimeter=parallelogramPerimeter;whiteSpace=wrap;html=1;fixedSize=1;rounded=1;arcSize=14;strokeWidth=2;" vertex="1" parent="1">
          <mxGeometry x="950" y="1980" width="140" height="60" as="geometry" />
        </mxCell>
        <mxCell id="Got45nBeuuP8gM_Kh5bP-31" value="" style="edgeStyle=orthogonalEdgeStyle;rounded=0;orthogonalLoop=1;jettySize=auto;html=1;" edge="1" parent="1" source="Got45nBeuuP8gM_Kh5bP-17" target="Got45nBeuuP8gM_Kh5bP-30">
          <mxGeometry relative="1" as="geometry" />
        </mxCell>
        <mxCell id="Got45nBeuuP8gM_Kh5bP-17" value="choose 0" style="rhombus;whiteSpace=wrap;html=1;rounded=1;arcSize=14;strokeWidth=2;" vertex="1" parent="1">
          <mxGeometry x="100" y="2130" width="80" height="80" as="geometry" />
        </mxCell>
        <mxCell id="Got45nBeuuP8gM_Kh5bP-36" value="" style="edgeStyle=orthogonalEdgeStyle;rounded=0;orthogonalLoop=1;jettySize=auto;html=1;" edge="1" parent="1" source="Got45nBeuuP8gM_Kh5bP-21" target="Got45nBeuuP8gM_Kh5bP-35">
          <mxGeometry relative="1" as="geometry" />
        </mxCell>
        <mxCell id="Got45nBeuuP8gM_Kh5bP-21" value="print thank you message" style="shape=parallelogram;perimeter=parallelogramPerimeter;whiteSpace=wrap;html=1;fixedSize=1;rounded=1;arcSize=14;strokeWidth=2;" vertex="1" parent="1">
          <mxGeometry x="440" y="2140" width="120" height="60" as="geometry" />
        </mxCell>
        <mxCell id="Got45nBeuuP8gM_Kh5bP-29" value="" style="edgeStyle=orthogonalEdgeStyle;rounded=0;orthogonalLoop=1;jettySize=auto;html=1;" edge="1" parent="1" source="Got45nBeuuP8gM_Kh5bP-26" target="Got45nBeuuP8gM_Kh5bP-11">
          <mxGeometry relative="1" as="geometry" />
        </mxCell>
        <mxCell id="Got45nBeuuP8gM_Kh5bP-26" value="load financial report and customer from the database" style="rounded=1;whiteSpace=wrap;html=1;absoluteArcSize=1;arcSize=14;strokeWidth=2;" vertex="1" parent="1">
          <mxGeometry x="505" y="1960" width="100" height="100" as="geometry" />
        </mxCell>
        <mxCell id="Got45nBeuuP8gM_Kh5bP-32" value="" style="edgeStyle=orthogonalEdgeStyle;rounded=0;orthogonalLoop=1;jettySize=auto;html=1;" edge="1" parent="1" source="Got45nBeuuP8gM_Kh5bP-30" target="Got45nBeuuP8gM_Kh5bP-21">
          <mxGeometry relative="1" as="geometry" />
        </mxCell>
        <mxCell id="Got45nBeuuP8gM_Kh5bP-30" value="close the database" style="rounded=1;whiteSpace=wrap;html=1;absoluteArcSize=1;arcSize=14;strokeWidth=2;" vertex="1" parent="1">
          <mxGeometry x="255" y="2120" width="100" height="100" as="geometry" />
        </mxCell>
        <mxCell id="Got45nBeuuP8gM_Kh5bP-33" value="MENU" style="strokeWidth=2;html=1;shape=mxgraph.flowchart.start_2;whiteSpace=wrap;" vertex="1" parent="1">
          <mxGeometry x="1170" y="1980" width="60" height="60" as="geometry" />
        </mxCell>
        <mxCell id="Got45nBeuuP8gM_Kh5bP-35" value="END" style="strokeWidth=2;html=1;shape=mxgraph.flowchart.start_2;whiteSpace=wrap;" vertex="1" parent="1">
          <mxGeometry x="670" y="2140" width="60" height="60" as="geometry" />
        </mxCell>
      </root>
    </mxGraphModel>
  </diagram>
</mxfile>
